<?xml version="1.0" standalone="no"?><!DOCTYPE svg PUBLIC "-//W3C//DTD SVG 1.1//EN" "http://www.w3.org/Graphics/SVG/1.1/DTD/svg11.dtd"><svg t="1685904167094" class="icon" viewBox="0 0 1024 1024" version="1.1" xmlns="http://www.w3.org/2000/svg" p-id="12432" xmlns:xlink="http://www.w3.org/1999/xlink" width="200" height="200"><path d="M816 416a304 304 0 1 0-494.88 236.16A122.24 122.24 0 0 1 368 746.72V752a64 64 0 0 0 16.96 43.36A48 48 0 0 0 368 832a48 48 0 0 0 12.32 32A48 48 0 0 0 416 944h19.52l12.48 51.84a16 16 0 0 0 16 12.16h96a16 16 0 0 0 16-12.16l12.48-51.84H608a48 48 0 0 0 35.68-80 48 48 0 0 0 12.32-32 48 48 0 0 0-16.96-36.64A64 64 0 0 0 656 752v-5.12a122.24 122.24 0 0 1 47.04-94.72A302.4 302.4 0 0 0 816 416z m-135.36 176a73.76 73.76 0 0 1-74.24 34.08A55.52 55.52 0 0 1 551.52 672h-5.6A53.6 53.6 0 0 1 512 654.4a53.6 53.6 0 0 1-33.92 17.6h-5.6a55.52 55.52 0 0 1-54.88-46.24A73.76 73.76 0 0 1 343.36 592a75.2 75.2 0 0 1 3.2-84 97.76 97.76 0 0 1 27.2-186.72A83.2 83.2 0 0 1 512 249.6a83.2 83.2 0 0 1 138.24 71.36 97.76 97.76 0 0 1 27.2 186.72 75.52 75.52 0 0 1 3.2 84.32zM624 896a16 16 0 0 1-16 16H416a16 16 0 0 1 0-32h192a16 16 0 0 1 16 16z m-16-80a16 16 0 0 1 0 32H416a16 16 0 0 1 0-32h192z" p-id="12433"></path><path d="M424 272a52.32 52.32 0 0 0-16 58.4 48 48 0 0 0 11.52 18.24 16 16 0 0 1 0 22.56 16 16 0 0 1-11.2 4.64 16 16 0 0 1-11.36-4.8A73.76 73.76 0 0 1 384 352a67.68 67.68 0 0 0-64 58.08 65.92 65.92 0 0 0 16 50.56 64 64 0 0 0 42.4 22.56 73.28 73.28 0 0 1 80 16 16 16 0 0 1-11.36 27.2 16 16 0 0 1-11.36-4.8 42.4 42.4 0 0 0-48-8.48 39.36 39.36 0 0 0-9.28 6.24 43.68 43.68 0 0 0-7.68 54.4 41.76 41.76 0 0 0 46.4 18.56V592a16 16 0 0 1 32 0v24a24.16 24.16 0 0 0 7.84 17.92 23.04 23.04 0 0 0 18.24 5.92 25.28 25.28 0 0 0 20.8-26.08v-176a36.96 36.96 0 0 0-40.64-3.84 16 16 0 0 1-14.72-28.48 68.48 68.48 0 0 1 55.36-4v-120.96a4.8 4.8 0 0 0-1.28-3.2A52.64 52.64 0 0 0 424 272zM640 352a73.76 73.76 0 0 1-13.92 19.04 16 16 0 0 1-11.36 4.8 16 16 0 0 1-11.2-4.64 16 16 0 0 1 0-22.56 48 48 0 0 0 11.52-18.24 52.32 52.32 0 0 0-16-58.4 48 48 0 0 0-32-11.2 55.36 55.36 0 0 0-39.2 16 4.8 4.8 0 0 0-1.28 3.2v120.8a67.68 67.68 0 0 1 54.72 4.16 16 16 0 0 1-15.04 28.16 36 36 0 0 0-39.68 4v176A25.28 25.28 0 0 0 549.12 640a23.04 23.04 0 0 0 18.24-5.92A24.16 24.16 0 0 0 576 616V592a16 16 0 0 1 32 0v1.12a41.76 41.76 0 0 0 46.4-18.56 43.68 43.68 0 0 0-7.68-54.4 39.36 39.36 0 0 0-9.28-6.24 42.4 42.4 0 0 0-48 8.48 16 16 0 0 1-11.36 4.8 16 16 0 0 1-11.36-27.2 72.96 72.96 0 0 1 80-16A64 64 0 0 0 688 460.64a65.92 65.92 0 0 0 16-50.56A67.68 67.68 0 0 0 640 352zM176 416a16 16 0 0 0-16-16H128a16 16 0 0 0 0 32h32a16 16 0 0 0 16-16zM896 400h-32a16 16 0 0 0 0 32h32a16 16 0 0 0 0-32zM199.2 578.08l-27.68 16a16 16 0 0 0 16 27.84l27.68-16a16 16 0 0 0-16-27.84zM816.8 256a16 16 0 0 0 8-2.08l27.68-16a16 16 0 0 0-16-27.84l-27.68 16a16 16 0 0 0 8 29.92zM312 707.04a16 16 0 0 0-21.92 5.76l-16 27.68a16 16 0 0 0 13.92 24 16 16 0 0 0 13.92-8l16-27.68a16 16 0 0 0-5.92-21.76zM680 124.96a16 16 0 0 0 21.92-5.76l16-27.68a16 16 0 1 0-27.84-16l-16 27.68a16 16 0 0 0 5.92 21.76zM852.48 594.08l-27.68-16a16 16 0 0 0-16 27.84l27.68 16a16 16 0 0 0 8 2.08 16 16 0 0 0 8-29.92zM171.52 237.92l27.68 16a16 16 0 0 0 21.76-5.92 16 16 0 0 0-5.76-21.92l-27.68-16a16 16 0 0 0-16 27.84zM733.92 712.8a16 16 0 0 0-27.84 16l16 27.68a16 16 0 0 0 13.92 8 16 16 0 0 0 13.92-24zM322.08 119.2a16 16 0 0 0 21.92 5.76 16 16 0 0 0 5.92-21.76l-16-27.68a16 16 0 1 0-27.84 16zM512 80a16 16 0 0 1-16-16V32a16 16 0 0 1 32 0v32a16 16 0 0 1-16 16z" p-id="12434"></path></svg>