<?xml version="1.0" standalone="no"?><!DOCTYPE svg PUBLIC "-//W3C//DTD SVG 1.1//EN" "http://www.w3.org/Graphics/SVG/1.1/DTD/svg11.dtd"><svg t="1685903851078" class="icon" viewBox="0 0 1024 1024" version="1.1" xmlns="http://www.w3.org/2000/svg" p-id="2417" xmlns:xlink="http://www.w3.org/1999/xlink" width="200" height="200"><path d="M853.333333 0h-682.666666C75.093333 0 0 75.093333 0 170.666667v682.666666C0 948.906667 75.093333 1024 170.666667 1024h682.666666c95.573333 0 170.666667-75.093333 170.666667-170.666667v-682.666666C1024 75.093333 948.906667 0 853.333333 0zM955.733333 853.333333c0 54.613333-47.786667 102.4-102.4 102.4h-682.666666c-54.613333 0-102.4-47.786667-102.4-102.4v-682.666666C68.266667 116.053333 116.053333 68.266667 170.666667 68.266667h682.666666c54.613333 0 102.4 47.786667 102.4 102.4v682.666666z" fill="#777777" p-id="2418"></path><path d="M716.8 136.533333h-409.6c-20.48 0-34.133333 13.653333-34.133333 34.133334s13.653333 34.133333 34.133333 34.133333h409.6c20.48 0 34.133333-13.653333 34.133333-34.133333s-13.653333-34.133333-34.133333-34.133334zM539.306667 293.546667c-13.653333-13.653333-34.133333-13.653333-47.786667 0L293.546667 484.693333c-13.653333 13.653333-13.653333 34.133333 0 47.786667 13.653333 13.653333 34.133333 13.653333 47.786666 6.826667l136.533334-136.533334v450.56c0 20.48 13.653333 34.133333 34.133333 34.133334s34.133333-13.653333 34.133333-34.133334V402.773333l136.533334 136.533334c13.653333 13.653333 34.133333 13.653333 47.786666 0s13.653333-34.133333 0-47.786667L539.306667 293.546667z" fill="#777777" p-id="2419"></path></svg>